<svg xmlns="http://www.w3.org/2000/svg" viewBox="0 0 386.9 100">
  <circle fill="#ff7b1c" cx="83.06" cy="55.59" r="3.4"/>
  <path fill="#ff7b1c" d="M97.1,60.72a27.16,27.16,0,0,0-2.5-7.33,34.21,34.21,0,0,0-3.68-5.82,22.89,22.89,0,0,0,1.76-6.49,19.91,19.91,0,0,0-.29-6.21A16.88,16.88,0,0,0,91,30.78a13.52,13.52,0,0,0-.91-1.61,2.23,2.23,0,0,0-1.68-.91,2.2,2.2,0,0,0-1.76.76,39.11,39.11,0,0,1-11.18,9.21c.48-.71.93-1.41,1.35-2.13a35.67,35.67,0,0,0,2-4c.54-1.26,1-2.57,1.47-4A39.71,39.71,0,0,0,82.06,18a44.25,44.25,0,0,0-.48-8.45,38,38,0,0,0-2.1-8A2.33,2.33,0,0,0,77.88.08,2.45,2.45,0,0,0,75.79.5C66.54,7.61,60.5,10,50.48,14c-5.7,2.2-12.79,5-22.42,9.44a68.59,68.59,0,0,0-9.19,5.09,50.2,50.2,0,0,0-7.22,5.77,41.52,41.52,0,0,0-5.37,6.39,36,36,0,0,0-3.62,6.83,36.34,36.34,0,0,0-2,7.17A40.92,40.92,0,0,0,0,62a48,48,0,0,0,.6,7.38,59.29,59.29,0,0,0,1.61,7.34,24.17,24.17,0,0,0,3.46,7.46A20.19,20.19,0,0,0,10,88.71a16.86,16.86,0,0,0,5.17,2.72,22.82,22.82,0,0,0,2,2.5,18.36,18.36,0,0,0,7.42,5,19.19,19.19,0,0,0,4.86,1c.58,0,1.18.07,1.78.07A26.44,26.44,0,0,0,35,99.74a34.27,34.27,0,0,0,8.26-2.19,22.56,22.56,0,0,0,5.81-3.44A18.9,18.9,0,0,0,52.8,90a21.78,21.78,0,0,0,2.13-4.23,15.47,15.47,0,0,0,1-6.73v-.46a53.78,53.78,0,0,0,9.21,3.92,40.66,40.66,0,0,0,10.77,1.89,33.41,33.41,0,0,0,4-.12,30.13,30.13,0,0,0,3-.45A17.21,17.21,0,0,0,85.66,83a2.6,2.6,0,0,0,.7-.47,4.42,4.42,0,0,0,1.31-3.29A10.3,10.3,0,0,0,86,74.32c-.44-.75-1-1.54-1.59-2.38l.34.09a21,21,0,0,0,4.73.57A12.79,12.79,0,0,0,91,72.52a8.8,8.8,0,0,0,5.28-2,2.17,2.17,0,0,0,.59-1A20.57,20.57,0,0,0,97.1,60.72ZM6.81,75.48C.72,53.79,8.55,37.78,30.07,27.85c9.51-4.38,16.54-7.16,22.18-9.38,5.2-2.06,9.29-3.69,13.4-5.76A76.62,76.62,0,0,0,76,6.38a35.23,35.23,0,0,1,.84,4.06,36.79,36.79,0,0,1-1.15,16.29,32.58,32.58,0,0,1-8.48,13.93.91.91,0,0,0-.18.21c-2.29-.11-4.54-.15-6.73-.15-2.7,0-5.29.07-7.78.24a89.93,89.93,0,0,0-12.34,1.57,63.62,63.62,0,0,0-9.77,2.77A42.69,42.69,0,0,0,22.93,49a30.5,30.5,0,0,0-9.24,8.68A26.19,26.19,0,0,0,11.37,62a20.75,20.75,0,0,0-1.76,9.22,43.71,43.71,0,0,0,.66,7.41,41.91,41.91,0,0,0,1.26,5.2A18,18,0,0,1,6.81,75.48Zm85.94-7.8-.27.12a7.6,7.6,0,0,1-2.49.49c-2.23.11-6.18-.4-12.22-3.45a2.19,2.19,0,0,0-2.93,1,2.16,2.16,0,0,0,.44,2.54,60.53,60.53,0,0,1,4.61,5,24.1,24.1,0,0,1,2.72,4,5.47,5.47,0,0,1,.62,1.81,24.28,24.28,0,0,1-7.3.78c-4.79-.15-12.41-1.59-21.64-7.39a10.65,10.65,0,0,0-2-2.84A12.28,12.28,0,0,0,49,67.41a15,15,0,0,0-8-1.53,13,13,0,0,0-7,2.68,11,11,0,0,0-2.65,3,12.5,12.5,0,0,0-1.56,4.08,2.19,2.19,0,1,0,4.3.85,7.76,7.76,0,0,1,7.35-6.27c3.49-.3,7.74,1.22,9.09,4.67h0a13.33,13.33,0,0,1,.29,9.29c-1.52,4-4.88,9.5-16.48,11.22-5.81.86-10.5-.63-14-4.41s-5.11-9.36-5.79-13.26a31.23,31.23,0,0,1-.19-11.16c.94-3.86,3.6-9.42,10.87-14,8.1-5,19.85-7.6,35-7.6,2.35,0,4.8.06,7.32.18h.21a13.61,13.61,0,0,0,2.11-.32A27.22,27.22,0,0,0,75,43.32a35.91,35.91,0,0,0,7-4,46.23,46.23,0,0,0,5.73-5A13.57,13.57,0,0,1,88.19,36a17,17,0,0,1-1.74,11,2.18,2.18,0,0,0,.35,2.44s.57.63,1.32,1.67a30.12,30.12,0,0,1,2.65,4.39C92.89,59.79,93.56,63.9,92.75,67.68Z"/>
  <path fill="#ff7b1c" d="M142.35,40.39a3,3,0,0,1-.73-.11,1.14,1.14,0,0,0-1,.11,1.12,1.12,0,0,0-.32.92c0,1.62,1.57,4.07,3.95,4.07,3.9,0,12.16-6.5,12.16-13.76,0-5.09-3.24-8.41-8.24-8.41-8.59,0-17.68,8.84-17.68,17.2,0,7.36,5.11,10.74,9.17,13.4,3.08,2.06,5.76,3.81,5.76,6.67a3.56,3.56,0,0,1-3.31,3.79,3.68,3.68,0,0,1-.47,0A4.06,4.06,0,0,1,138.48,63a1.26,1.26,0,0,0-1.1-.76c-1.31,0-2.9,2.5-2.9,4.07,0,.76,1.77,3.59,7.13,3.59a9.63,9.63,0,0,0,9.68-9.56c0-5.49-4-8.19-7.95-10.84-3.64-2.41-7.05-4.71-7.05-9.09,0-6.28,7.09-11.61,11.55-11.61,2,0,2.85.84,2.85,2.86C150.68,35.47,145.46,40.39,142.35,40.39Zm129.52,5.52V31.58a3.21,3.21,0,0,1,.44-1.94c.41,0,1.12,1.18,1.12,5.37A55.63,55.63,0,0,1,271.87,45.91Zm-16.57,2.5a1.62,1.62,0,0,1,1.22-.6c.58,0,.79.84.79,1.67a8.49,8.49,0,0,1-4.05,7.5v-.29h0c-.13-2,.4-6.59,2-8.3ZM173.08,87.93c-.41,0-1.09-.63-1.09-3V77.44A13,13,0,0,1,174.16,85C174.16,87.16,173.49,87.93,173.08,87.93Zm110-31.16a2.12,2.12,0,0,0-2.1-.64c-.51.17-1.18.66-1.47,2.11-.51,2.5-2.43,6.15-5,6.15-2.27,0-2.74-2-2.74-3.72V57.33c1.33-1.86,6.38-13.72,6.38-22.32,0-3.38,0-10.39-6-10.39-3.47,0-6.09,3.59-6.09,8.33v24.2c-.66,3.33-2.41,7.26-7,7.26a5.14,5.14,0,0,1-5-3,13.16,13.16,0,0,0,8.89-12c0-4.06-2.37-6.67-6-6.67-4.78,0-9.89,5.69-9.89,14.18a16.22,16.22,0,0,0,.24,2.78c-.59,2.35-1.67,4.8-3.59,4.8-1.43,0-1.94-1.51-1.94-2.8,0-4.47,1.49-9.53,2.29-12.23a16,16,0,0,0,.47-1.81,3.1,3.1,0,0,0-.9-2.27,4.87,4.87,0,0,0-2.56-1.75H238a19.41,19.41,0,0,1-2.85-.2,4.35,4.35,0,0,0-4.26-3.29,3.44,3.44,0,0,0-3.58,3.27v.07a4.83,4.83,0,0,0,2.64,4.21c0,2.08-.25,7.64-1,10.24a.49.49,0,0,1-.06.29v0c-.55,2.67-1.55,6.21-3.93,6.21-1.43,0-1.94-1.51-1.94-2.8,0-4.48,1.49-9.52,2.29-12.22a13.16,13.16,0,0,0,.47-1.82,3.14,3.14,0,0,0-.9-2.28,4.86,4.86,0,0,0-2.55-1.73h-3.19a20.73,20.73,0,0,1-2.84-.31A4.34,4.34,0,0,0,212.05,40a3.44,3.44,0,0,0-3.59,3.29v0a4.82,4.82,0,0,0,2.64,4.21,53.54,53.54,0,0,1-1,10.25,2.8,2.8,0,0,1-.06.28h0c-.83,4.17-2.07,6.22-3.62,6.22-.9,0-1.08-1.25-1.08-2.31V46.46c0-1.86-1.62-3.21-3.83-3.21-1.2,0-2.1.68-2.1,1.55a3.2,3.2,0,0,0,.09.62,6.08,6.08,0,0,1,.16,1.35V57.32a2.92,2.92,0,0,0-.23.83c-.83,4.17-2.06,6.22-3.62,6.22-.9,0-1.08-1.25-1.08-2.31V46.46c0-1.86-1.62-3.21-3.82-3.21-.92,0-2.5.24-2.5,1.19a1.19,1.19,0,0,0,.23.65,2.72,2.72,0,0,1,.38,1.67V56.6c-.83,4.6-2.65,7.81-4.51,7.81s-2.31-2.86-2.31-4.58A44.39,44.39,0,0,1,184,47.75v-.19c.07-.19.14-.38.23-.57.35-.77.83-1.85.31-2.65a2.2,2.2,0,0,0-2-.78c-2.83,0-3.34.94-3.59,2.06a1.93,1.93,0,0,1-.15.52v0a58.55,58.55,0,0,0-2.23,13.6,24.47,24.47,0,0,1-4.62,7.74V51.9c0-1.86-1.61-3.21-3.82-3.21-1.21,0-2.11.67-2.11,1.56a3,3,0,0,0,.08.6,5.23,5.23,0,0,1,.17,1.36v6.93c-.45,2.5-1.67,5.23-3.6,5.23s-3-1.67-3-4.52c0-8.07,4.82-12.3,9.6-12.3.29,0,.6,0,.84.05s.59.07.9.07c1.31,0,1.31-1.29,1.31-1.93a3,3,0,0,0-3-3.09,1.82,1.82,0,0,0-.33,0,14.51,14.51,0,0,0-10.46,4.56,17.66,17.66,0,0,0-4.55,12.43c0,5.94,3.07,9.78,7.81,9.78a6.89,6.89,0,0,0,4.54-1.6V84.39c0,5.54,2.35,8.61,6.67,8.61,3.7,0,6.59-3.8,6.59-8.67,0-4.46-2.3-8-5.76-11.86a26.53,26.53,0,0,0,4.69-5.5,6.13,6.13,0,0,0,5.15,2.5c2.29,0,4.29-1.22,6-3.66a5.36,5.36,0,0,0,5.21,3.6,7.4,7.4,0,0,0,5.78-2.78,5.37,5.37,0,0,0,4.83,2.78c4.16,0,7.27-3.23,9.1-9.34,0-.1.07-.19.1-.29a48.73,48.73,0,0,0,1.53-10.92h4.11c-2,5.42-2.84,9.47-2.84,13,0,5.54,3.53,7.5,6.82,7.5,4.17,0,7.28-3.23,9.09-9.34a1.15,1.15,0,0,0,.11-.29A48.27,48.27,0,0,0,235,48.86h4.1c-2,5.42-2.84,9.47-2.84,13,0,5.54,3.54,7.5,6.83,7.5,2.77,0,5.08-1.45,6.86-4.23a7.73,7.73,0,0,0,.76.83,10.92,10.92,0,0,0,7.89,3.34,11.58,11.58,0,0,0,8.85-3.55A7.12,7.12,0,0,0,274,69.35c6.4,0,9.4-7.51,10.17-9.86h0A3,3,0,0,0,283.13,56.77ZM312.3,38.12a11.44,11.44,0,0,1-6.91,3.06,2.81,2.81,0,0,1-1.67-.38,1.08,1.08,0,0,0-.65-.22c-.94,0-1.18,1.55-1.18,2.5a3.13,3.13,0,0,0,3.21,3.46c3.43,0,7.66-1.72,11-4.51,3.66-3,5.77-6.82,5.77-10.42,0-5.23-3.25-8.61-8.34-8.61-5.74,0-11,3.25-15,9.17A34,34,0,0,0,293,50.35c0,12.31,5.59,20,14.55,20A18,18,0,0,0,320,65.1h0a2.33,2.33,0,0,0,.33-2.56,3.36,3.36,0,0,0-2.44-2.33,1.83,1.83,0,0,0-1.77,1l-.09.08a11.64,11.64,0,0,1-8,3.36,7.53,7.53,0,0,1-7-4.31,21.49,21.49,0,0,1-2.09-10c0-9.9,6.14-21.84,13.78-21.84A2.91,2.91,0,0,1,316,31.42C316,33.62,314.63,36.07,312.3,38.12Zm74-.51a1,1,0,0,0-1.16.26c-3.5.15-7.35.23-11.47.25V27.89c0-1.86-1.62-3.21-3.83-3.21-.91,0-2.5.25-2.5,1.19a1.25,1.25,0,0,0,.23.66,2.62,2.62,0,0,1,.39,1.66v9.87c-3-.06-5-.17-5-.17h0a1.3,1.3,0,0,0-1.1.56,1.85,1.85,0,0,0-.31,1.12c0,1.41,1,3.43,2.68,3.46.18,0,1.49.1,3.74.12V57.32a3.49,3.49,0,0,0-.23.84c-.83,4.17-2.06,6.22-3.6,6.22-1.24,0-1.56-1.45-1.56-2.31V52c0-1.86-1.62-3.21-3.83-3.21-1.21,0-2.11.68-2.11,1.55a3.2,3.2,0,0,0,.09.62,5.14,5.14,0,0,1,.16,1.35v9.32c-.51,1.29-1.45,2.78-2.92,2.78-1.86,0-3-1.67-3-4.52,0-8.07,4.83-12.3,9.61-12.3.29,0,.59,0,.84.05s.59.07.9.07c1.3,0,1.3-1.29,1.3-1.93a3,3,0,0,0-3-3.09,1.82,1.82,0,0,0-.33,0,14.51,14.51,0,0,0-10.46,4.56,17.65,17.65,0,0,0-4.59,12.43,9.94,9.94,0,0,0,.06,1.35c-.76,2.24-1.72,3.34-2.86,3.34-.9,0-1.08-1.25-1.08-2.31V49.36c0-4.25-2-6.67-5.6-6.67-2.39,0-4.52,1.54-6.36,4.56V29.12c0-1.86-1.62-3.21-3.83-3.21-.91,0-2.5.25-2.5,1.18a1.2,1.2,0,0,0,.23.66,2.72,2.72,0,0,1,.38,1.67V66.24c0,2,1.27,3.21,3.46,3.21a2.17,2.17,0,0,0,1.59-.58,3.33,3.33,0,0,0,.64-2.5v-9a15.26,15.26,0,0,1,2.4-6.62c1.28-2,2.5-3,3.1-3s.77,1.18.77,3V63.17c0,3.7,2.33,6.28,5.66,6.28a7.51,7.51,0,0,0,5.83-2.87A7.06,7.06,0,0,0,353,69.45a7.14,7.14,0,0,0,5.2-2.21A6,6,0,0,0,363,69.45a7.57,7.57,0,0,0,5.88-2.85,5.6,5.6,0,0,0,5.22,2.85c5.83,0,8.29-6.24,9.26-10a2,2,0,0,0,.08-.55,3.18,3.18,0,0,0-2.66-3c-.36,0-1.57.16-2,2.25-.84,4.12-2.06,6.21-3.62,6.21-.68,0-1.58-.24-1.58-2.31V43.13c3.11,0,6.63,0,11.29-.13.83,0,1.47-.87,1.8-2.35C386.8,40.39,387.27,38.14,386.3,37.61Zm-183,.36a4.17,4.17,0,1,0-4.17-4.17A4.17,4.17,0,0,0,203.32,38Z"/>
</svg>
