<svg xmlns="http://www.w3.org/2000/svg" viewBox="0 0 97.47 99.98">
  <circle fill="#ff7b1c" cx="83.06" cy="55.58" r="3.4"/>
  <path fill="#ff7b1c" d="M97.1,60.71a27.16,27.16,0,0,0-2.5-7.33,34.21,34.21,0,0,0-3.68-5.82,22.89,22.89,0,0,0,1.76-6.49,19.91,19.91,0,0,0-.29-6.21A16.66,16.66,0,0,0,91,30.78a12.11,12.11,0,0,0-.91-1.61A2.19,2.19,0,0,0,86.65,29a38.91,38.91,0,0,1-11.18,9.2c.48-.71.93-1.41,1.35-2.13a35.53,35.53,0,0,0,2-4c.54-1.26,1-2.57,1.47-4A39.87,39.87,0,0,0,82.06,18a44.21,44.21,0,0,0-.48-8.45,38,38,0,0,0-2.1-8A2.31,2.31,0,0,0,77.88.08,2.45,2.45,0,0,0,75.79.5C66.54,7.61,60.5,10,50.48,14c-5.7,2.2-12.79,5-22.42,9.44a67.5,67.5,0,0,0-9.19,5.09,48.86,48.86,0,0,0-7.22,5.77,41.44,41.44,0,0,0-5.37,6.38,36,36,0,0,0-3.62,6.83,36.34,36.34,0,0,0-2,7.17A40.75,40.75,0,0,0,0,62a48,48,0,0,0,.6,7.38,59.29,59.29,0,0,0,1.61,7.34,24.23,24.23,0,0,0,3.46,7.45A20.19,20.19,0,0,0,10,88.69a16.86,16.86,0,0,0,5.17,2.72,22.82,22.82,0,0,0,2,2.5,18.36,18.36,0,0,0,7.42,5,19.19,19.19,0,0,0,4.86,1c.58,0,1.18.07,1.78.07A26.44,26.44,0,0,0,35,99.72a34.74,34.74,0,0,0,8.26-2.19,22.56,22.56,0,0,0,5.81-3.44,18.9,18.9,0,0,0,3.73-4.15,21.78,21.78,0,0,0,2.13-4.23,15.45,15.45,0,0,0,1-6.73v-.45a53,53,0,0,0,9.21,3.91,40.66,40.66,0,0,0,10.77,1.89,33.41,33.41,0,0,0,4-.12,30.13,30.13,0,0,0,3-.45A17.21,17.21,0,0,0,85.66,83a2.6,2.6,0,0,0,.7-.47,4.42,4.42,0,0,0,1.31-3.29A10.22,10.22,0,0,0,86,74.31c-.44-.75-1-1.54-1.59-2.38l.34.09a21,21,0,0,0,4.73.57c.51,0,1,0,1.52-.08a8.86,8.86,0,0,0,5.28-2,2.22,2.22,0,0,0,.59-1A20.58,20.58,0,0,0,97.1,60.71ZM6.81,75.47C.72,53.78,8.55,37.77,30.07,27.85c9.51-4.38,16.54-7.16,22.18-9.38,5.2-2.06,9.29-3.69,13.4-5.76A77.65,77.65,0,0,0,76,6.38a34.8,34.8,0,0,1,.84,4.06,36.81,36.81,0,0,1-1.15,16.29,32.61,32.61,0,0,1-8.48,13.92.91.91,0,0,0-.18.21c-2.29-.11-4.54-.15-6.73-.15-2.7,0-5.29.07-7.78.24a89.93,89.93,0,0,0-12.34,1.57,63.62,63.62,0,0,0-9.77,2.77A42.69,42.69,0,0,0,22.93,49a30.5,30.5,0,0,0-9.24,8.68,26.19,26.19,0,0,0-2.32,4.26,23.61,23.61,0,0,0-1.23,3.67,24,24,0,0,0-.53,5.55,43.9,43.9,0,0,0,.66,7.41,42.19,42.19,0,0,0,1.26,5.19A18.06,18.06,0,0,1,6.81,75.47Zm85.94-7.8-.27.12a7.87,7.87,0,0,1-2.49.49c-2.23.11-6.18-.4-12.22-3.45a2.19,2.19,0,0,0-2.49,3.54,57.47,57.47,0,0,1,4.61,5,23.29,23.29,0,0,1,2.72,4,5.5,5.5,0,0,1,.62,1.8,24.28,24.28,0,0,1-7.3.78c-4.79-.15-12.41-1.58-21.64-7.38a10.65,10.65,0,0,0-2-2.84A12.28,12.28,0,0,0,49,67.4a15,15,0,0,0-8-1.53,13,13,0,0,0-7,2.68,10.87,10.87,0,0,0-2.65,3,12.42,12.42,0,0,0-1.56,4.08,2.19,2.19,0,0,0,4.3.85,7.75,7.75,0,0,1,7.35-6.27c3.49-.3,7.74,1.22,9.09,4.67h0a13.3,13.3,0,0,1,.29,9.28c-1.52,4-4.88,9.5-16.48,11.22-5.81.86-10.5-.63-14-4.41s-5.11-9.36-5.79-13.25a31.24,31.24,0,0,1-.19-11.16c.94-3.86,3.6-9.42,10.87-14,8.1-5.05,19.85-7.6,35-7.6,2.35,0,4.8.06,7.32.18h.21a13.61,13.61,0,0,0,2.11-.32A27.22,27.22,0,0,0,75,43.31a35.91,35.91,0,0,0,7-4,46.23,46.23,0,0,0,5.73-5A14.06,14.06,0,0,1,88.19,36a17,17,0,0,1-1.74,11,2.18,2.18,0,0,0,.35,2.44s.57.63,1.32,1.67a29.6,29.6,0,0,1,2.65,4.39C92.89,59.78,93.56,63.89,92.75,67.67Z"/>
</svg>
