<svg xmlns="http://www.w3.org/2000/svg" viewBox="0 0 307.72 83.96">
  <path fill="#ff7b1c" d="M14.27,20.86a4.35,4.35,0,0,1-.88-.13,1.34,1.34,0,0,0-1.23.13,1.36,1.36,0,0,0-.39,1.1c0,1.94,1.89,4.88,4.74,4.88,4.68,0,14.59-7.79,14.59-16.5C31.1,4.23,27.22.25,21.21.25,10.91.25,0,10.85,0,20.88,0,29.71,6.13,33.76,11,37c3.7,2.46,6.91,4.57,6.91,8a4.26,4.26,0,0,1-4,4.54h-.57A4.88,4.88,0,0,1,9.62,48a1.5,1.5,0,0,0-1.32-.91c-1.57,0-3.48,3-3.48,4.88,0,.91,2.13,4.3,8.56,4.3A11.56,11.56,0,0,0,25,44.79c0-6.59-4.85-9.83-9.54-13C11.09,28.9,7,26.13,7,20.88,7,13.35,15.5,7,20.85,7c2.38,0,3.43,1,3.43,3.43C24.26,15,18,20.86,14.27,20.86Zm155.42,6.62V10.29A3.88,3.88,0,0,1,170.21,8c.49,0,1.35,1.42,1.35,6.45A67,67,0,0,1,169.69,27.48Zm-19.89,3a1.92,1.92,0,0,1,1.47-.72c.69,0,.94,1,.94,2a10.16,10.16,0,0,1-4.86,9v-.35h0c-.15-2.45.49-7.9,2.45-10ZM51.14,77.88c-.49,0-1.3-.76-1.3-3.58v-9a15.54,15.54,0,0,1,2.6,9C52.44,77,51.63,77.88,51.14,77.88ZM183.2,40.5a2.53,2.53,0,0,0-2.52-.76c-.61.2-1.42.79-1.77,2.53-.61,3-2.91,7.38-6,7.38-2.72,0-3.28-2.43-3.28-4.47v-4c1.59-2.23,7.65-16.46,7.65-26.78,0-4.05,0-12.46-7.16-12.46-4.17,0-7.31,4.31-7.31,10V41c-.79,4-2.89,8.71-8.36,8.71a6.15,6.15,0,0,1-6-3.58,15.78,15.78,0,0,0,10.67-14.42c0-4.88-2.85-8-7.24-8-5.74,0-11.87,6.82-11.87,17A19.65,19.65,0,0,0,140.3,44c-.71,2.82-2,5.76-4.31,5.76-1.72,0-2.33-1.82-2.33-3.36,0-5.37,1.79-11.43,2.75-14.67a17.86,17.86,0,0,0,.56-2.18,3.69,3.69,0,0,0-1.08-2.72c-.86-1-2.26-2.09-3.07-2.09H129a24.61,24.61,0,0,1-3.43-.24,5.21,5.21,0,0,0-5.11-4,4.11,4.11,0,0,0-4.29,3.92v.08a5.79,5.79,0,0,0,3.17,5.05c0,2.5-.3,9.17-1.16,12.29a.57.57,0,0,1-.07.34v0c-.66,3.21-1.86,7.45-4.71,7.45-1.72,0-2.33-1.81-2.33-3.36,0-5.37,1.79-11.42,2.75-14.66a14.83,14.83,0,0,0,.56-2.18,3.71,3.71,0,0,0-1.08-2.73c-.86-1-2.25-2.08-3.06-2.08h-3.83a24.52,24.52,0,0,1-3.41-.37,5.2,5.2,0,0,0-5.1-3.95,4.14,4.14,0,0,0-4.3,3.95v.05a5.79,5.79,0,0,0,3.17,5.05c0,2.51-.3,9.18-1.16,12.29,0,.11,0,.23-.07.34h0c-1,5-2.48,7.46-4.34,7.46-1.08,0-1.3-1.5-1.3-2.77V28.14c0-2.23-1.94-3.85-4.59-3.85-1.44,0-2.52.81-2.52,1.86a3.66,3.66,0,0,0,.1.74,6.77,6.77,0,0,1,.19,1.62V41.16a3.53,3.53,0,0,0-.27,1c-1,5-2.47,7.46-4.34,7.46-1.08,0-1.3-1.5-1.3-2.77V28.14c0-2.23-1.94-3.85-4.58-3.85-1.11,0-3,.29-3,1.42a1.42,1.42,0,0,0,.27.79,3.26,3.26,0,0,1,.46,2V40.3c-1,5.52-3.18,9.37-5.42,9.37-2.4,0-2.77-3.43-2.77-5.49,0-6,.79-9.2,2.06-14.5v-.22c.08-.23.17-.46.27-.68.42-.93,1-2.23.37-3.19a2.62,2.62,0,0,0-2.4-.93c-3.39,0-4,1.13-4.3,2.47a2.34,2.34,0,0,1-.19.62v.05a70.44,70.44,0,0,0-2.67,16.31,29.63,29.63,0,0,1-5.54,9.29V34.66c0-2.23-1.94-3.85-4.59-3.85-1.45,0-2.53.81-2.53,1.87a3.57,3.57,0,0,0,.1.73,6.31,6.31,0,0,1,.2,1.62v8.32c-.54,3-2,6.27-4.32,6.27S35,47.62,35,44.2c0-9.68,5.79-14.76,11.53-14.76.34,0,.71,0,1,.07s.71.08,1.08.08c1.57,0,1.57-1.55,1.57-2.31a3.67,3.67,0,0,0-3.6-3.72l-.4,0a17.41,17.41,0,0,0-12.55,5.47A21.12,21.12,0,0,0,28.18,44c0,7.12,3.68,11.73,9.37,11.73A8.33,8.33,0,0,0,43,53.77V73.63C43,80.28,45.82,84,51,84c4.44,0,7.9-4.56,7.9-10.4,0-5.35-2.75-9.59-6.9-14.22a32.53,32.53,0,0,0,5.62-6.6,7.36,7.36,0,0,0,6.18,3c2.75,0,5.15-1.47,7.14-4.39a6.45,6.45,0,0,0,6.25,4.32,8.89,8.89,0,0,0,6.94-3.34,6.47,6.47,0,0,0,5.79,3.34c5,0,8.73-3.88,10.92-11.21a2.06,2.06,0,0,0,.12-.35c1.42-4.53,1.76-11,1.84-13.09h4.93c-2.36,6.5-3.41,11.35-3.41,15.65,0,6.64,4.24,9,8.19,9,5,0,8.73-3.88,10.91-11.21a1.48,1.48,0,0,0,.13-.35c1.42-4.53,1.76-11,1.84-13.09h4.92c-2.35,6.5-3.4,11.35-3.4,15.65,0,6.64,4.24,9,8.19,9,3.33,0,6.1-1.74,8.24-5.08a8,8,0,0,0,.91,1,13.08,13.08,0,0,0,9.46,4,13.89,13.89,0,0,0,10.62-4.25,8.54,8.54,0,0,0,7.85,4.25c7.68,0,11.28-9,12.21-11.82h0A3.56,3.56,0,0,0,183.2,40.5Zm35-22.37c-2.6,2.28-5.79,3.68-8.29,3.68a3.33,3.33,0,0,1-2-.46,1.47,1.47,0,0,0-.78-.27c-1.13,0-1.42,1.86-1.42,3,0,2.53,1.52,4.15,3.85,4.15,4.12,0,9.19-2.06,13.19-5.4,4.39-3.63,6.92-8.19,6.92-12.5,0-6.28-3.9-10.33-10-10.33-6.89,0-13.27,3.9-18,11a40.72,40.72,0,0,0-6.6,21.81c0,14.76,6.7,23.93,17.46,23.93a21.55,21.55,0,0,0,14.91-6.25h0a2.77,2.77,0,0,0,.39-3.06c-.44-1.25-1.54-2.67-2.92-2.8a2.21,2.21,0,0,0-2.13,1.2l-.1.1a14,14,0,0,1-9.6,4,9.07,9.07,0,0,1-8.37-5.17,25.77,25.77,0,0,1-2.5-12c0-11.87,7.36-26.19,16.53-26.19,3.07,0,3.88,2.2,3.88,3.5C222.62,12.74,221,15.68,218.2,18.13Zm88.8-.61c-.32-.17-.79-.22-1.4.32-4.2.17-8.81.27-13.76.29V5.87c0-2.23-1.94-3.85-4.59-3.85-1.1,0-3,.29-3,1.42a1.42,1.42,0,0,0,.27.79,3.2,3.2,0,0,1,.47,2V18.06c-3.58-.07-6-.2-6-.2h0a1.58,1.58,0,0,0-1.32.67,2.29,2.29,0,0,0-.37,1.34c0,1.7,1.25,4.12,3.21,4.15.22,0,1.79.12,4.49.15v17a3.53,3.53,0,0,0-.27,1c-1,5-2.48,7.46-4.32,7.46-1.49,0-1.88-1.74-1.88-2.77V34.74c0-2.23-1.94-3.85-4.59-3.85-1.45,0-2.53.81-2.53,1.86a3.66,3.66,0,0,0,.1.74,6.31,6.31,0,0,1,.2,1.62V46.29c-.62,1.54-1.74,3.33-3.51,3.33-2.23,0-3.58-2-3.58-5.42,0-9.68,5.79-14.76,11.53-14.76.34,0,.71,0,1,.07s.71.08,1.08.08c1.57,0,1.57-1.55,1.57-2.31a3.67,3.67,0,0,0-3.6-3.72l-.4,0a17.41,17.41,0,0,0-12.55,5.47A21.08,21.08,0,0,0,257.74,44a12.32,12.32,0,0,0,.07,1.62c-.91,2.68-2.06,4-3.43,4-1.08,0-1.3-1.49-1.3-2.77V31.62c0-5.1-2.45-8-6.72-8-2.87,0-5.42,1.84-7.63,5.47V7.34c0-2.23-1.94-3.85-4.59-3.85-1.1,0-3,.3-3,1.42a1.42,1.42,0,0,0,.27.79,3.26,3.26,0,0,1,.46,2V51.86c0,2.45,1.52,3.85,4.15,3.85a2.59,2.59,0,0,0,1.91-.69,4,4,0,0,0,.76-3V41.21a18.46,18.46,0,0,1,2.89-7.94c1.53-2.38,3-3.61,3.71-3.61s.93,1.42.93,3.58V48.18c0,4.44,2.8,7.53,6.79,7.53a9,9,0,0,0,7-3.44,8.42,8.42,0,0,0,7,3.44,8.53,8.53,0,0,0,6.25-2.65A7.2,7.2,0,0,0,279,55.71a9.07,9.07,0,0,0,7.06-3.41,6.73,6.73,0,0,0,6.26,3.41c7,0,9.95-7.48,11.11-12a2.11,2.11,0,0,0,.1-.66c0-1.74-1.67-3.63-3.19-3.63-.44,0-1.89.2-2.36,2.7-1,5-2.47,7.45-4.34,7.45-.81,0-1.89-.29-1.89-2.77V24.14c3.73,0,7.95,0,13.54-.15,1,0,1.77-1,2.16-2.82C307.6,20.86,308.16,18.16,307,17.52ZM87.43,18a5,5,0,1,0-5-5A5,5,0,0,0,87.43,18Z"/>
</svg>
