<svg width="0" height="0">
  <symbol xmlns="http://www.w3.org/2000/svg" viewBox="0 0 97.46 100" id="squirrel">
    <path fill="currentColor" d="M97.1,60.71a27.1,27.1,0,0,0-2.5-7.33,34.05,34.05,0,0,0-3.68-5.82,22.84,22.84,0,0,0,1.76-6.49,20.15,20.15,0,0,0-.29-6.21A16.9,16.9,0,0,0,91,30.78a12.43,12.43,0,0,0-.91-1.61,2.22,2.22,0,0,0-1.68-.91,2.18,2.18,0,0,0-1.76.76,38.92,38.92,0,0,1-11.18,9.2c.48-.71.93-1.41,1.35-2.13a35.73,35.73,0,0,0,2-4c.54-1.26,1-2.57,1.47-4A39.71,39.71,0,0,0,82.06,18a43.72,43.72,0,0,0-.48-8.45,37.9,37.9,0,0,0-2.1-8A2.34,2.34,0,0,0,77.88.08,2.45,2.45,0,0,0,75.79.5C66.54,7.61,60.5,10,50.48,14,44.78,16.2,37.69,19,28.06,23.44a68.11,68.11,0,0,0-9.19,5.09,49.24,49.24,0,0,0-7.22,5.77,41.49,41.49,0,0,0-5.37,6.38,36.08,36.08,0,0,0-3.62,6.83,36.84,36.84,0,0,0-2,7.17A41,41,0,0,0,0,62a48.38,48.38,0,0,0,.6,7.38,59.57,59.57,0,0,0,1.61,7.34,24,24,0,0,0,3.46,7.45A20.06,20.06,0,0,0,10,88.69a16.63,16.63,0,0,0,5.17,2.72,22.3,22.3,0,0,0,2,2.5,18.37,18.37,0,0,0,7.42,5,19.08,19.08,0,0,0,4.86,1c.58,0,1.18.07,1.78.07A26,26,0,0,0,35,99.72a34.42,34.42,0,0,0,8.26-2.19,22.7,22.7,0,0,0,5.81-3.44,18.87,18.87,0,0,0,3.73-4.15,21.74,21.74,0,0,0,2.13-4.23,15.57,15.57,0,0,0,1-6.73c0-.15,0-.3,0-.45a53.29,53.29,0,0,0,9.21,3.91,40.55,40.55,0,0,0,10.77,1.89,33.8,33.8,0,0,0,4-.12,28.47,28.47,0,0,0,3-.45A16.62,16.62,0,0,0,85.66,83a2.46,2.46,0,0,0,.7-.47,4.43,4.43,0,0,0,1.31-3.29A10.28,10.28,0,0,0,86,74.31c-.44-.75-1-1.54-1.59-2.38l.34.09a20.93,20.93,0,0,0,4.73.57A14.8,14.8,0,0,0,91,72.51a8.84,8.84,0,0,0,5.28-2,2.19,2.19,0,0,0,.59-1A20.68,20.68,0,0,0,97.1,60.71ZM6.81,75.47C.72,53.78,8.55,37.77,30.07,27.85c9.51-4.38,16.54-7.16,22.18-9.38,5.2-2.06,9.29-3.69,13.4-5.76A76.54,76.54,0,0,0,76,6.38a36.51,36.51,0,0,1,.84,4.06,36.7,36.7,0,0,1-1.15,16.29,32.53,32.53,0,0,1-8.48,13.92,1.24,1.24,0,0,0-.18.21c-2.29-.11-4.54-.15-6.73-.15-2.7,0-5.29.07-7.78.24a91,91,0,0,0-12.34,1.57,63.66,63.66,0,0,0-9.77,2.77A43.39,43.39,0,0,0,22.93,49a30.5,30.5,0,0,0-9.24,8.68,25.92,25.92,0,0,0-2.32,4.26,24,24,0,0,0-1.23,3.67,23.86,23.86,0,0,0-.53,5.55,44.74,44.74,0,0,0,.66,7.41,40.78,40.78,0,0,0,1.26,5.19A18.06,18.06,0,0,1,6.81,75.47Zm85.94-7.8-.27.12a7.78,7.78,0,0,1-2.49.49c-2.23.11-6.18-.4-12.22-3.45a2.19,2.19,0,0,0-2.49,3.54,57.35,57.35,0,0,1,4.61,5,23.6,23.6,0,0,1,2.72,4,5.43,5.43,0,0,1,.62,1.8,24,24,0,0,1-7.3.78c-4.79-.15-12.41-1.58-21.64-7.38a10.72,10.72,0,0,0-2-2.84A12.37,12.37,0,0,0,49,67.4a15,15,0,0,0-8-1.53,13,13,0,0,0-7,2.68,11.09,11.09,0,0,0-2.65,3,12.45,12.45,0,0,0-1.56,4.08,2.19,2.19,0,1,0,4.3.85,7.75,7.75,0,0,1,7.35-6.27c3.49-.3,7.74,1.22,9.09,4.67v0a13.3,13.3,0,0,1,.29,9.28c-1.52,4-4.88,9.5-16.48,11.22-5.81.86-10.5-.63-13.95-4.41s-5.11-9.36-5.79-13.25a31.25,31.25,0,0,1-.19-11.16c.94-3.86,3.6-9.42,10.87-14,8.1-5.05,19.85-7.6,35-7.6,2.35,0,4.8.06,7.32.18h.21a13.68,13.68,0,0,0,2.11-.32A27,27,0,0,0,75,43.31a35.74,35.74,0,0,0,7-4,45.3,45.3,0,0,0,5.73-5A15.33,15.33,0,0,1,88.19,36a17,17,0,0,1-1.74,11,2.16,2.16,0,0,0,.35,2.44s.57.63,1.32,1.67a30.4,30.4,0,0,1,2.65,4.39C92.89,59.78,93.56,63.89,92.75,67.67Z"/>
    <circle fill="currentColor" cx="83.06" cy="55.58" r="3.4"/>
  </symbol>
  <symbol xmlns="http://www.w3.org/2000/svg" viewBox="0 0 307.73 84" id="wordmark">
    <path fill="currentColor" d="M14.3,20.9c-0.3,0-0.6-0.1-0.9-0.1c-0.4-0.2-0.9-0.1-1.2,0.1c-0.3,0.3-0.4,0.7-0.4,1.1c0,1.9,1.9,4.9,4.7,4.9 c4.7,0,14.6-7.8,14.6-16.5c0-6.1-3.9-10.1-9.9-10.1C10.9,0.3,0,10.9,0,20.9C0,29.8,6.1,33.8,11,37c3.7,2.5,6.9,4.6,6.9,8 c0.2,2.3-1.6,4.4-4,4.5c-0.2,0-0.4,0-0.6,0C12,49.6,10.6,49,9.6,48c-0.2-0.5-0.7-0.9-1.3-0.9c-1.6,0-3.5,3-3.5,4.9 c0,0.9,2.1,4.3,8.6,4.3c6.4,0,11.6-5.1,11.6-11.5c0-6.6-4.9-9.8-9.5-13C11.1,28.9,7,26.2,7,20.9C7,13.4,15.5,7,20.9,7 c2.4,0,3.4,1,3.4,3.4C24.3,15,18,20.9,14.3,20.9z M169.7,27.5V10.3c-0.1-0.8,0.1-1.6,0.5-2.3c0.5,0,1.4,1.4,1.4,6.4 C171.4,18.9,170.7,23.2,169.7,27.5z M149.8,30.5c0.4-0.4,0.9-0.7,1.5-0.7c0.7,0,0.9,1,0.9,2c0.1,3.7-1.7,7.1-4.9,9 c0-0.1,0-0.3,0-0.3l0,0C147.2,38,147.8,32.5,149.8,30.5L149.8,30.5z M51.1,77.9c-0.5,0-1.3-0.8-1.3-3.6v-9c1.8,2.7,2.7,5.8,2.6,9 C52.4,77,51.6,77.9,51.1,77.9z M183.2,40.5c-0.6-0.7-1.6-1-2.5-0.8c-0.6,0.2-1.4,0.8-1.8,2.5c-0.6,3-2.9,7.4-6,7.4 c-2.7,0-3.3-2.4-3.3-4.5v-4c1.6-2.2,7.6-16.5,7.6-26.8c0-4.1,0-12.5-7.2-12.5c-4.2,0-7.3,4.3-7.3,10v29c-0.8,4-2.9,8.7-8.4,8.7 c-2.5,0.2-4.9-1.3-6-3.6c6.2-2.1,10.5-7.9,10.7-14.4c0-4.9-2.9-8-7.2-8c-5.7,0-11.9,6.8-11.9,17c0,1.1,0.1,2.2,0.3,3.3 c-0.7,2.8-2,5.8-4.3,5.8c-1.7,0-2.3-1.8-2.3-3.4c0-5.4,1.8-11.4,2.8-14.7c0.2-0.7,0.4-1.4,0.6-2.2c0-1-0.4-2-1.1-2.7 c-0.9-1-2.3-2.1-3.1-2.1H129c-1.1,0-2.3-0.1-3.4-0.2c-0.6-2.3-2.7-4-5.1-4c-2.3-0.1-4.2,1.7-4.3,3.9c0,0,0,0.1,0,0.1 	c0,2.1,1.3,4.1,3.2,5.1c-0.1,2.5-0.3,9.2-1.2,12.3c0,0.1,0,0.2-0.1,0.3v0c-0.7,3.2-1.9,7.5-4.7,7.5c-1.7,0-2.3-1.8-2.3-3.4 	c0-5.4,1.8-11.4,2.8-14.7c0.2-0.7,0.4-1.4,0.6-2.2c0-1-0.4-2-1.1-2.7c-0.9-1-2.3-2.1-3.1-2.1h-3.8c-1.1,0-2.3-0.2-3.4-0.4 c-0.6-2.3-2.7-4-5.1-4c-2.3-0.1-4.2,1.7-4.3,4c0,0,0,0,0,0c0,2.1,1.3,4.1,3.2,5.1c0,2.5-0.3,9.2-1.2,12.3c0,0.1,0,0.2-0.1,0.3l0,0 c-1,5-2.5,7.5-4.3,7.5c-1.1,0-1.3-1.5-1.3-2.8V28.2c0-2.2-1.9-3.9-4.6-3.9c-1.4,0-2.5,0.8-2.5,1.9c0,0.2,0,0.5,0.1,0.7c0.1,0.5,0.2,1.1,0.2,1.6v12.6c-0.1,0.3-0.2,0.7-0.3,1c-1,5-2.5,7.5-4.3,7.5c-1.1,0-1.3-1.5-1.3-2.8V28.2c0-2.2-1.9-3.9-4.6-3.9 c-1.1,0-3,0.3-3,1.4c0,0.3,0.1,0.6,0.3,0.8c0.4,0.6,0.5,1.3,0.5,2v11.8c-1,5.5-3.2,9.4-5.4,9.4c-2.4,0-2.8-3.4-2.8-5.5 c0-6,0.8-9.2,2.1-14.5v-0.2c0.1-0.2,0.2-0.5,0.3-0.7c0.4-0.9,1-2.2,0.4-3.2c-0.6-0.7-1.5-1.1-2.4-0.9c-3.4,0-4,1.1-4.3,2.5 c0,0.2-0.1,0.4-0.2,0.6v0c-1.5,5.3-2.4,10.8-2.7,16.3c-1.3,3.4-3.1,6.6-5.5,9.3V34.7c0-2.2-1.9-3.9-4.6-3.9c-1.5,0-2.5,0.8-2.5,1.9 c0,0.2,0,0.5,0.1,0.7c0.1,0.5,0.2,1.1,0.2,1.6v8.3c-0.5,3-2,6.3-4.3,6.3s-3.6-2-3.6-5.4c0-9.7,5.8-14.8,11.5-14.8c0.3,0,0.7,0,1,0.1 s0.7,0.1,1.1,0.1c1.6,0,1.6-1.5,1.6-2.3c0-2-1.6-3.7-3.6-3.7c-0.1,0-0.3,0-0.4,0c-4.8,0-9.3,2-12.5,5.5c-3.7,4.1-5.6,9.4-5.5,14.9 c0,7.1,3.7,11.7,9.4,11.7c2,0,3.9-0.7,5.5-1.9v19.9c0,6.7,2.8,10.3,8,10.3c4.4,0,7.9-4.6,7.9-10.4c0-5.3-2.8-9.6-6.9-14.2 c2.2-1.9,4.1-4.2,5.6-6.6c1.4,2,3.8,3.1,6.2,3c2.8,0,5.1-1.5,7.1-4.4c0.9,2.6,3.4,4.4,6.3,4.3c2.7,0,5.3-1.2,6.9-3.3 c1.2,2.1,3.4,3.4,5.8,3.3c5,0,8.7-3.9,10.9-11.2c0-0.1,0.1-0.2,0.1-0.3c1.4-4.5,1.8-11,1.8-13.1h4.9c-2.4,6.5-3.4,11.4-3.4,15.6 c0,6.6,4.2,9,8.2,9c5,0,8.7-3.9,10.9-11.2c0.1-0.1,0.1-0.2,0.1-0.3c1.4-4.5,1.8-11,1.8-13.1h4.9c-2.3,6.5-3.4,11.4-3.4,15.6 c0,6.6,4.2,9,8.2,9c3.3,0,6.1-1.7,8.2-5.1c0.3,0.4,0.6,0.7,0.9,1c2.5,2.6,5.9,4,9.5,4c5,0,8.4-1.9,10.6-4.3c1.6,2.8,4.6,4.4,7.9,4.3 c7.7,0,11.3-9,12.2-11.8l0,0C184.6,42.6,184.1,41.3,183.2,40.5z M218.2,18.2c-2.6,2.3-5.8,3.7-8.3,3.7c-0.7,0.1-1.4-0.1-2-0.5 c-0.2-0.2-0.5-0.3-0.8-0.3c-1.1,0-1.4,1.9-1.4,3c0,2.5,1.5,4.1,3.9,4.1c4.1,0,9.2-2.1,13.2-5.4c4.4-3.6,6.9-8.2,6.9-12.5 c0-6.3-3.9-10.3-10-10.3c-6.9,0-13.3,3.9-18,11c-4.2,6.5-6.5,14.1-6.6,21.8c0,14.8,6.7,23.9,17.5,23.9c5.6-0.1,10.9-2.3,14.9-6.3 l0,0c0.7-0.8,0.9-2.1,0.4-3.1c-0.4-1.3-1.5-2.7-2.9-2.8c-0.9-0.1-1.7,0.4-2.1,1.2l-0.1,0.1c-2.6,2.5-6,4-9.6,4 c-3.6,0.1-6.8-2-8.4-5.2c-1.6-3-2.5-7.1-2.5-12c0-11.9,7.4-26.2,16.5-26.2c3.1,0,3.9,2.2,3.9,3.5C222.6,12.8,221,15.7,218.2,18.2z M307,17.6c-0.3-0.2-0.8-0.2-1.4,0.3c-4.2,0.2-8.8,0.3-13.8,0.3V5.9c0-2.2-1.9-3.8-4.6-3.8c-1.1,0-3,0.3-3,1.4 c0,0.3,0.1,0.6,0.3,0.8c0.4,0.6,0.5,1.3,0.5,2v11.8c-3.6-0.1-6-0.2-6-0.2l0,0c-0.5,0-1,0.2-1.3,0.7c-0.3,0.4-0.4,0.9-0.4,1.3 c0,1.7,1.3,4.1,3.2,4.1c0.2,0,1.8,0.1,4.5,0.1v17c-0.1,0.3-0.2,0.7-0.3,1c-1,5-2.5,7.5-4.3,7.5c-1.5,0-1.9-1.7-1.9-2.8V34.8 c0-2.2-1.9-3.9-4.6-3.9c-1.5,0-2.5,0.8-2.5,1.9c0,0.2,0,0.5,0.1,0.7c0.1,0.5,0.2,1.1,0.2,1.6v11.2c-0.6,1.5-1.7,3.3-3.5,3.3 c-2.2,0-3.6-2-3.6-5.4c0-9.7,5.8-14.8,11.5-14.8c0.3,0,0.7,0,1,0.1s0.7,0.1,1.1,0.1c1.6,0,1.6-1.5,1.6-2.3c0-2-1.6-3.7-3.6-3.7 c-0.1,0-0.3,0-0.4,0c-4.8,0-9.3,2-12.5,5.5c-3.7,4.1-5.7,9.4-5.5,14.9c0,0.6,0,1.1,0.1,1.6c-0.9,2.7-2.1,4-3.4,4 c-1.1,0-1.3-1.5-1.3-2.8V31.7c0-5.1-2.4-8-6.7-8c-2.9,0-5.4,1.8-7.6,5.5V7.4c0-2.2-1.9-3.8-4.6-3.8c-1.1,0-3,0.3-3,1.4 c0,0.3,0.1,0.6,0.3,0.8c0.4,0.6,0.5,1.3,0.5,2v44.2c0,2.5,1.5,3.8,4.1,3.8c0.7,0,1.4-0.2,1.9-0.7c0.6-0.9,0.9-1.9,0.8-3V41.3 c0.3-2.8,1.3-5.6,2.9-7.9c1.5-2.4,3-3.6,3.7-3.6s0.9,1.4,0.9,3.6v14.9c0,4.4,2.8,7.5,6.8,7.5c2.7,0,5.3-1.3,7-3.4 c1.6,2.2,4.2,3.5,7,3.4c2.4,0,4.6-0.9,6.3-2.7c1.4,1.7,3.5,2.7,5.7,2.7c2.7,0,5.3-1.3,7.1-3.4c1.3,2.2,3.7,3.6,6.3,3.4 c7,0,10-7.5,11.1-12c0.1-0.2,0.1-0.4,0.1-0.7c0-1.7-1.7-3.6-3.2-3.6c-0.4,0-1.9,0.2-2.4,2.7c-1,5-2.5,7.5-4.3,7.5 c-0.8,0-1.9-0.3-1.9-2.8V24.2c3.7,0,8,0,13.5-0.1c1,0,1.8-1,2.2-2.8C307.6,20.9,308.2,18.2,307,17.6z M87.4,18c2.8,0,5-2.2,5-5 s-2.2-5-5-5s-5,2.2-5,5S84.7,18,87.4,18z"/>
  </symbol>
  <symbol xmlns="http://www.w3.org/2000/svg" viewBox="0 0 386.90 100" id="logo">
    <use x="0" y="0" width="97.46" height="100" href="#squirrel"/>
    <use x="130.46" y="23" width="256.44" height="70" href="#wordmark"/>
  </symbol>
  <symbol xmlns="http://www.w3.org/2000/svg" viewBox="0 0 1676.16 344.5" id="branding">
    <path fill="currentColor" d="M99,45.2c0-10-4.47-14.5-14.5-14.5-22,0-57.1,26.13-57.1,57.1,0,21.75,16.92,33.07,34.84,45.05,19,12.72,38.66,25.87,38.66,52.45a46.6,46.6,0,0,1-46.7,46.4c-25.8,0-34.4-13.4-34.4-17,0-7.37,7.65-19.4,13.7-19.4,2.68,0,4.06,1.83,5,3.53l0,0c3.93,4.19,9.22,6.32,15.71,6.32,11.54,0,19-7.46,19-19,0-14.38-13.16-23-28.39-33.09C23.81,139.27,0,123.58,0,87.8,0,47.17,44.21,4.2,86,4.2c24.18,0,39.8,16,39.8,40.7,0,15.21-8.1,32.09-22.22,46.3-12.18,12.26-27,20.5-36.78,20.5C55.5,111.7,48,100,48,92.3c0-1.43.17-3.22,1.46-4.25s3-.72,4.62-.36a16.63,16.63,0,0,0,3.72.51C73.09,88.2,99,63.76,99,45.2ZM356.9,76.6a20.09,20.09,0,0,0,20.3-20.3,20.15,20.15,0,1,0-40.3,0C336.9,67.3,346.05,76.6,356.9,76.6ZM699.59,61.4c0-21.15-3.84-26.8-6.1-26.8-.88,0-2.5,4.12-2.5,10v73.92C695.72,101.47,699.59,74,699.59,61.4Zm-99.8,105.51c0,.81.05,1.55.12,2.33,12.89-7.17,20.78-21.21,20.78-37.34,0-2-.31-8.5-4.3-8.5a8.59,8.59,0,0,0-6.34,3.07C602,135,599.33,157.36,599.79,166.91ZM213.9,305.9c0-11.06-1.5-23.33-11.6-38.47V305.6c0,11.15,3.12,15.1,5.8,15.1C210.43,320.7,213.9,316.76,213.9,305.9Zm537-124.61,0,.14c-3.75,11.23-18.36,47.87-49.3,47.87-14.86,0-25.91-6.26-32-17.49-9,9.79-22.59,17.49-43.29,17.49a52.92,52.92,0,0,1-38.23-16.24,56.32,56.32,0,0,1-4.12-4.77c-8.63,13.84-20,21-33.55,21-15.9,0-32.9-9.51-32.9-36.2,0-17.63,4.37-37.55,14.13-64.3H510.33c-.29,7.93-1.68,34.95-7.53,53.79a14.56,14.56,0,0,1-.53,1.42c-8.76,29.65-23.92,45.29-44,45.29-15.9,0-32.9-9.51-32.9-36.2,0-17.63,4.37-37.55,14.13-64.3H418.23c-.29,7.93-1.68,35-7.53,53.79a15,15,0,0,1-.53,1.44c-8.77,29.65-23.93,45.27-44,45.27a25.69,25.69,0,0,1-23.46-14c-7.83,9.23-17.39,14-28.44,14-12.08,0-21.62-7-25.38-18.21C280.81,223.38,271,229.6,259.7,229.6c-10.71,0-19.32-4.57-25.18-12.78a133,133,0,0,1-23.6,27.72c17,19,28.28,36.25,28.28,58.06,0,23.5-13.92,41.9-31.7,41.9-20.64,0-32-14.77-32-41.6v-82a33.65,33.65,0,0,1-22.6,8.44c-22.9,0-37.7-18.56-37.7-47.3,0-24.14,7.79-45.07,22.53-60.52A70.87,70.87,0,0,1,188.6,99.3c9.45,0,15.8,5.87,15.8,14.6,0,3.11,0,8.9-5.9,8.9a42.19,42.19,0,0,1-4.33-.3,42.77,42.77,0,0,0-4.37-.3c-23.6,0-47.5,20.85-47.5,60.7,0,14.15,5.64,22.6,15.1,22.6,9.94,0,15.86-13.43,18.1-26.07V145.7a26.16,26.16,0,0,0-.77-6.68,12.8,12.8,0,0,1-.43-2.92c0-4,4.21-7.1,9.8-7.1,10.55,0,18.2,6.39,18.2,15.2V222a119.29,119.29,0,0,0,23.61-39.15c.35-31.32,10.77-66.12,10.87-66.48l.07-.18a19.3,19.3,0,0,0,.78-2.6c1.39-5.52,3.52-9.74,17-9.74,4.75,0,7.82,1.17,9.39,3.58,2.41,3.69.15,8.8-1.5,12.53a24,24,0,0,0-1.16,2.91l-.22.89c-5.25,21.57-8.41,34.59-8.41,59.19,0,8.55,1.53,22.9,11.8,22.9,9.38,0,18.66-15.89,22.6-38.67V119c0-5.27-1.12-7.09-1.94-8.42a5.46,5.46,0,0,1-1.06-3c0-5.24,11.12-5.3,11.6-5.3,10.54,0,18.2,6.39,18.2,15.2v76.2c0,5.39,1,11.8,5.8,11.8,7.85,0,14-10.36,18.14-30.8a21.34,21.34,0,0,1,1.16-4V119a26.63,26.63,0,0,0-.77-6.68,12.8,12.8,0,0,1-.43-2.92c0-4.05,4.21-7.1,9.8-7.1,10.54,0,18.2,6.39,18.2,15.2v76.2c0,5.39,1,11.8,5.8,11.8,7.85,0,14-10.36,18.14-30.8,0-.07,0-.14,0-.21a13.87,13.87,0,0,1,.28-1.4c3.56-13,4.49-40.61,4.71-50.55-8.43-5.06-12.88-12.07-12.88-20.34,0-9.89,8.65-15.8,17-15.8,4.73,0,16,1.6,20.46,16.07a103.84,103.84,0,0,0,14.34,1h15.6c3.2,0,8.8,4.31,12.16,8.31,2.28,2.7,4.84,6.74,4.24,10.69-.07,1.22-.75,3.57-2.3,8.83-3.91,13.27-11.2,38-11.2,60,0,7.07,3.1,14.2,10,14.2,12,0,16.94-17.58,19.64-30.8a1.46,1.46,0,0,0,.05-.2,10,10,0,0,1,.28-1.41c3.56-13,4.49-40.61,4.71-50.55C478.44,117.48,474,110.47,474,102.2c0-9.89,8.64-15.8,17-15.8,4.72,0,16,1.6,20.45,16.07a104,104,0,0,0,14.35,1h15.6c3.2,0,8.8,4.31,12.16,8.31,2.28,2.7,4.84,6.74,4.23,10.69-.06,1.22-.74,3.57-2.29,8.83-3.92,13.27-11.2,38-11.2,60,0,7.07,3.09,14.2,10,14.2,10,0,15.09-12.23,18.08-24a77.28,77.28,0,0,1-1.18-13.64c0-41,24.77-68.6,47.9-68.6,17.62,0,29,12.68,29,32.3,0,22.07-15,48.89-43.67,58.53,4.94,10.34,13.19,15.37,25.17,15.37,22.66,0,31.32-19.53,34.6-36V51.2c0-23,12.59-40.4,29.3-40.4,28.7,0,28.7,34,28.7,50.3,0,42.34-25,100.69-31.2,109V186.8c0,7,1.8,18.7,13.9,18.7,12.62,0,22.22-18.2,24.74-30.5,1.38-6.8,4.49-9.12,6.86-9.87,3.06-1,6.71.15,9.76,3C749.46,171.16,752.15,176.39,750.93,181.29ZM960.38,70.1c0-21.31-7.32-39.13-21.18-51.52C925.6,6.43,906.3,0,883.38,0c-55.21,0-92.3,38.06-92.3,94.7,0,34.24,15.76,52.71,22.53,59.06l.16.14a7.52,7.52,0,0,0,8.32.87c7-3.49,11.69-16.67,11.69-21.07,0-2.54-.72-4.38-2.14-5.47a5,5,0,0,0-3.61-.9c-6.64-7.55-10.15-19.44-10.15-34.43,0-41.58,24.6-66.4,65.8-66.4,36.61,0,49.6,23.81,49.6,44.2,0,40.18-30.48,50.8-46.6,50.8a6.11,6.11,0,0,0-5.54,3.33,13.31,13.31,0,0,0-1.38,6.46c0,6.81,3.28,16.71,8.42,16.71,11.3,0,37.6,3.23,37.6,33.1,0,16.31-11.78,28.6-27.4,28.6-17.5,0-25.3-11.78-25.3-38.2V60.2c0-8.66-8.08-15.2-18.8-15.2-5.59,0-9.8,3-9.8,7.1a12.8,12.8,0,0,0,.43,2.92,26.63,26.63,0,0,1,.77,6.68V170.6c0,43.53,16.84,63.8,53,63.8,31.07,0,54.5-23.17,54.5-53.9,0-22.19-10.62-39.19-28.65-46.34C948,120.1,960.38,98,960.38,70.1Zm447.39,6.5a20.09,20.09,0,0,0,20.3-20.3,20.15,20.15,0,1,0-40.3,0C1387.77,67.3,1396.93,76.6,1407.77,76.6Zm-105.1,101.8a9.84,9.84,0,0,1-.36,2.59l-.09.34c1.23,17.72,9.84,24.17,18,24.17,6.06,0,11.24-3.45,15.4-10.25V124.16c-15.51,3.63-32.81,15.6-33.47,50.65A12.45,12.45,0,0,1,1302.67,178.4Zm373.49,0a15,15,0,0,1-.36,3.49c-10.36,35.36-27.93,53.19-43.74,67v51c0,32.89-17.15,44.6-33.2,44.6-17.56,0-30.8-15.69-30.8-36.5,0-30.85,18-47,37.2-63.9V218a34.93,34.93,0,0,1-22.6,8.29c-10.77,0-19.75-4.11-26.24-11.45-6.93,8.35-16.31,14.45-29,14.45-16,0-27.2-12.42-27.2-30.2V138.2c0-9.32-.72-15.1-4.3-15.1-7.09,0-25.3,24.37-27.4,47.59V215c0,3.89,0,8.73-3,11.74-1.73,1.73-4.22,2.61-7.41,2.61-8.61,0-14.18-3.79-15.85-10.55-7.19,7-15.66,10.55-25.24,10.55a25.7,25.7,0,0,1-23.41-13.88c-6.88,8.06-16.13,13.88-28.49,13.88-9.46,0-17.75-3.85-23.09-10.66-7.76,7.08-16.63,10.66-26.41,10.66-12.83,0-23.05-4.76-30-13.51-6.85,7.87-16,13.51-28.16,13.51-16,0-27.2-12.42-27.2-30.2V138.2c0-9.32-.72-15.1-4.3-15.1-7.09,0-25.3,24.37-27.4,47.59V215c0,3.89,0,8.73-3,11.74-1.73,1.73-4.23,2.61-7.41,2.61-8.57,0-14.12-3.75-15.83-10.45a35.45,35.45,0,0,1-25.27,10.45c-9.57,0-17.93-4-23.32-11.1-7.16,7.37-15.75,11.1-25.58,11.1-12.11,0-22-5.2-28.55-14.35-7.88,9.47-17.55,14.35-28.74,14.35-15.91,0-32.9-9.51-32.9-36.2,0-17.63,4.37-37.55,14.13-64.3h-21.3c-.29,7.93-1.68,34.95-7.52,53.79-2.07,6.69-7,7.85-11,6.72-6.12-1.76-11.56-9.07-9.67-16.22,3.57-13,4.49-40.61,4.71-50.55-8.43-5.06-12.87-12.07-12.87-20.34,0-9.89,8.64-15.8,17-15.8,4.72,0,15.95,1.6,20.45,16.07a103.87,103.87,0,0,0,14.35,1h15.6c3.19,0,8.79,4.31,12.15,8.31,2.28,2.7,4.85,6.74,4.24,10.69-.07,1.22-.75,3.57-2.3,8.83-3.91,13.27-11.19,38-11.19,60,0,7.07,3.09,14.2,10,14.2,8,0,12.81-7.78,16-16.88-.18-2.14-.29-4.34-.29-6.62,0-24.14,7.79-45.07,22.53-60.52a70.87,70.87,0,0,1,50.87-22.18c9.45,0,15.8,5.87,15.8,14.6,0,3.11,0,8.9-5.9,8.9a42.19,42.19,0,0,1-4.32-.3,43.16,43.16,0,0,0-4.38-.3c-23.6,0-47.5,20.85-47.5,60.7,0,14.15,5.65,22.6,15.1,22.6,7.56,0,12.21-7.52,14.8-14V145.7a26.75,26.75,0,0,0-.76-6.68,12.29,12.29,0,0,1-.44-2.92c0-4,4.22-7.1,9.8-7.1,10.55,0,18.2,6.39,18.2,15.2v49.5c0,4.38,1.73,11.8,8.2,11.8,7.86,0,14-10.36,18.14-30.79a21.56,21.56,0,0,1,1.16-4V119a26.63,26.63,0,0,0-.77-6.68,12.8,12.8,0,0,1-.43-2.92c0-4.05,4.21-7.1,9.8-7.1,10.55,0,18.2,6.39,18.2,15.2v5.42c9.07-15.68,19.68-23.62,31.6-23.62,17.1,0,26.9,11.77,26.9,32.3v62.1c0,5.39,1,11.8,5.8,11.8,5.14,0,9.52-4.43,13.11-13.21a84.22,84.22,0,0,1-1-13.29c0-22,6.4-41.16,18.51-55.37a69.83,69.83,0,0,1,42.09-23.45V34.1c0-5.27-1.12-7.09-1.94-8.42a5.46,5.46,0,0,1-1.06-3c0-5.24,11.12-5.3,11.6-5.3,10.54,0,18.2,6.39,18.2,15.2V193.7c0,4.38,1.73,11.8,8.2,11.8,7.85,0,14-10.36,18.14-30.8a21.34,21.34,0,0,1,1.16-4V119a26.63,26.63,0,0,0-.77-6.68,12.8,12.8,0,0,1-.43-2.92c0-4.05,4.21-7.1,9.8-7.1,10.54,0,18.2,6.39,18.2,15.2v76.2c0,5.39,1,11.8,5.8,11.8,7.85,0,14-10.36,18.14-30.8a22,22,0,0,1,1.15-4V119a26.75,26.75,0,0,0-.76-6.68,12.29,12.29,0,0,1-.44-2.92c0-4.05,4.22-7.1,9.8-7.1,10.55,0,18.2,6.39,18.2,15.2v5.42c9.08-15.68,19.68-23.62,31.6-23.62,17.1,0,26.9,11.77,26.9,32.3v62.1c0,5.39,1,11.8,5.8,11.8,5.19,0,9.61-4.52,13.22-13.47a73.62,73.62,0,0,1-1.12-13c0-24.14,7.79-45.07,22.53-60.52a70.87,70.87,0,0,1,50.87-22.18c9.45,0,15.8,5.87,15.8,14.6,0,3.11,0,8.9-5.9,8.9a41.8,41.8,0,0,1-4.32-.3,43.16,43.16,0,0,0-4.38-.3c-22.65,0-45.55,19.21-47.37,56a12,12,0,0,1,.47,3.23,9.84,9.84,0,0,1-.36,2.59c-.06.24-.13.49-.19.74.47,13,6,20.77,15.05,20.77,9.94,0,15.86-13.43,18.1-26.07V142.7a26.16,26.16,0,0,0-.77-6.68,12.8,12.8,0,0,1-.43-2.92c0-4,4.21-7.1,9.8-7.1,10.55,0,18.2,6.39,18.2,15.2v76.22a117.27,117.27,0,0,0,22.48-42.87c.74-2.58,3-10.45,9.12-10.45C1669.62,164.1,1676.16,171.59,1676.16,178.4Zm-70.9,121.5V273c-8.51,10.1-12.2,20.56-12.2,34.12,0,8.27,2.49,14.5,5.8,14.5a4.07,4.07,0,0,0,3.08-1.26c3.57-3.63,3.42-13.77,3.34-18.65C1605.27,301,1605.26,300.41,1605.26,299.9Z"/>
  </symbol>
</svg>
