<svg width="0" height="0">
  <symbol xmlns="http://www.w3.org/2000/svg" viewBox="0 0 97.46 100" id="squirrel">
    <path fill="currentColor" d="M97.1,60.71a27.1,27.1,0,0,0-2.5-7.33,34.05,34.05,0,0,0-3.68-5.82,22.84,22.84,0,0,0,1.76-6.49,20.15,20.15,0,0,0-.29-6.21A16.9,16.9,0,0,0,91,30.78a12.43,12.43,0,0,0-.91-1.61,2.22,2.22,0,0,0-1.68-.91,2.18,2.18,0,0,0-1.76.76,38.92,38.92,0,0,1-11.18,9.2c.48-.71.93-1.41,1.35-2.13a35.73,35.73,0,0,0,2-4c.54-1.26,1-2.57,1.47-4A39.71,39.71,0,0,0,82.06,18a43.72,43.72,0,0,0-.48-8.45,37.9,37.9,0,0,0-2.1-8A2.34,2.34,0,0,0,77.88.08,2.45,2.45,0,0,0,75.79.5C66.54,7.61,60.5,10,50.48,14,44.78,16.2,37.69,19,28.06,23.44a68.11,68.11,0,0,0-9.19,5.09,49.24,49.24,0,0,0-7.22,5.77,41.49,41.49,0,0,0-5.37,6.38,36.08,36.08,0,0,0-3.62,6.83,36.84,36.84,0,0,0-2,7.17A41,41,0,0,0,0,62a48.38,48.38,0,0,0,.6,7.38,59.57,59.57,0,0,0,1.61,7.34,24,24,0,0,0,3.46,7.45A20.06,20.06,0,0,0,10,88.69a16.63,16.63,0,0,0,5.17,2.72,22.3,22.3,0,0,0,2,2.5,18.37,18.37,0,0,0,7.42,5,19.08,19.08,0,0,0,4.86,1c.58,0,1.18.07,1.78.07A26,26,0,0,0,35,99.72a34.42,34.42,0,0,0,8.26-2.19,22.7,22.7,0,0,0,5.81-3.44,18.87,18.87,0,0,0,3.73-4.15,21.74,21.74,0,0,0,2.13-4.23,15.57,15.57,0,0,0,1-6.73c0-.15,0-.3,0-.45a53.29,53.29,0,0,0,9.21,3.91,40.55,40.55,0,0,0,10.77,1.89,33.8,33.8,0,0,0,4-.12,28.47,28.47,0,0,0,3-.45A16.62,16.62,0,0,0,85.66,83a2.46,2.46,0,0,0,.7-.47,4.43,4.43,0,0,0,1.31-3.29A10.28,10.28,0,0,0,86,74.31c-.44-.75-1-1.54-1.59-2.38l.34.09a20.93,20.93,0,0,0,4.73.57A14.8,14.8,0,0,0,91,72.51a8.84,8.84,0,0,0,5.28-2,2.19,2.19,0,0,0,.59-1A20.68,20.68,0,0,0,97.1,60.71ZM6.81,75.47C.72,53.78,8.55,37.77,30.07,27.85c9.51-4.38,16.54-7.16,22.18-9.38,5.2-2.06,9.29-3.69,13.4-5.76A76.54,76.54,0,0,0,76,6.38a36.51,36.51,0,0,1,.84,4.06,36.7,36.7,0,0,1-1.15,16.29,32.53,32.53,0,0,1-8.48,13.92,1.24,1.24,0,0,0-.18.21c-2.29-.11-4.54-.15-6.73-.15-2.7,0-5.29.07-7.78.24a91,91,0,0,0-12.34,1.57,63.66,63.66,0,0,0-9.77,2.77A43.39,43.39,0,0,0,22.93,49a30.5,30.5,0,0,0-9.24,8.68,25.92,25.92,0,0,0-2.32,4.26,24,24,0,0,0-1.23,3.67,23.86,23.86,0,0,0-.53,5.55,44.74,44.74,0,0,0,.66,7.41,40.78,40.78,0,0,0,1.26,5.19A18.06,18.06,0,0,1,6.81,75.47Zm85.94-7.8-.27.12a7.78,7.78,0,0,1-2.49.49c-2.23.11-6.18-.4-12.22-3.45a2.19,2.19,0,0,0-2.49,3.54,57.35,57.35,0,0,1,4.61,5,23.6,23.6,0,0,1,2.72,4,5.43,5.43,0,0,1,.62,1.8,24,24,0,0,1-7.3.78c-4.79-.15-12.41-1.58-21.64-7.38a10.72,10.72,0,0,0-2-2.84A12.37,12.37,0,0,0,49,67.4a15,15,0,0,0-8-1.53,13,13,0,0,0-7,2.68,11.09,11.09,0,0,0-2.65,3,12.45,12.45,0,0,0-1.56,4.08,2.19,2.19,0,1,0,4.3.85,7.75,7.75,0,0,1,7.35-6.27c3.49-.3,7.74,1.22,9.09,4.67v0a13.3,13.3,0,0,1,.29,9.28c-1.52,4-4.88,9.5-16.48,11.22-5.81.86-10.5-.63-13.95-4.41s-5.11-9.36-5.79-13.25a31.25,31.25,0,0,1-.19-11.16c.94-3.86,3.6-9.42,10.87-14,8.1-5.05,19.85-7.6,35-7.6,2.35,0,4.8.06,7.32.18h.21a13.68,13.68,0,0,0,2.11-.32A27,27,0,0,0,75,43.31a35.74,35.74,0,0,0,7-4,45.3,45.3,0,0,0,5.73-5A15.33,15.33,0,0,1,88.19,36a17,17,0,0,1-1.74,11,2.16,2.16,0,0,0,.35,2.44s.57.63,1.32,1.67a30.4,30.4,0,0,1,2.65,4.39C92.89,59.78,93.56,63.89,92.75,67.67Z"/>
    <circle fill="currentColor" cx="83.06" cy="55.58" r="3.4"/>
  </symbol>
  <symbol xmlns="http://www.w3.org/2000/svg" viewBox="0 0 307.73 84" id="wordmark">
    <path fill="currentColor" d="M14.27,20.9a4.2,4.2,0,0,1-.88-.13,1.32,1.32,0,0,0-1.23.13A1.36,1.36,0,0,0,11.77,22c0,1.94,1.89,4.88,4.74,4.88,4.68,0,14.59-7.79,14.59-16.5C31.1,4.27,27.22.29,21.21.29,10.91.29,0,10.89,0,20.92,0,29.75,6.13,33.8,11,37c3.7,2.46,6.91,4.57,6.91,8a4.26,4.26,0,0,1-4.53,4.54,4.9,4.9,0,0,1-3.76-1.52,1.49,1.49,0,0,0-1.32-.91c-1.57,0-3.48,3-3.48,4.88,0,.91,2.13,4.3,8.56,4.3A11.56,11.56,0,0,0,25,44.83c0-6.59-4.85-9.83-9.54-13C11.09,28.94,7,26.17,7,20.92,7,13.39,15.5,7,20.85,7c2.38,0,3.43,1,3.43,3.43C24.26,15,18,20.9,14.27,20.9Zm155.42,6.62V10.33A3.88,3.88,0,0,1,170.21,8c.49,0,1.35,1.42,1.35,6.45A67.29,67.29,0,0,1,169.69,27.52Zm-19.89,3a1.94,1.94,0,0,1,1.47-.72c.69,0,.94,1,.94,2a10.16,10.16,0,0,1-4.86,9c0-.12,0-.25,0-.35v0C147.2,38,147.84,32.55,149.8,30.49ZM51.14,77.92c-.49,0-1.3-.76-1.3-3.58v-9a15.61,15.61,0,0,1,2.6,9C52.44,77,51.63,77.92,51.14,77.92ZM183.2,40.54a2.54,2.54,0,0,0-2.52-.76c-.61.2-1.42.79-1.77,2.53-.61,3-2.91,7.38-6,7.38-2.72,0-3.28-2.43-3.28-4.47v-4c1.59-2.23,7.65-16.46,7.65-26.78,0-4.05,0-12.46-7.16-12.46-4.17,0-7.31,4.31-7.31,10V41c-.79,4-2.89,8.71-8.36,8.71a6.16,6.16,0,0,1-6-3.58,15.79,15.79,0,0,0,10.67-14.42c0-4.88-2.85-8-7.24-8-5.74,0-11.87,6.82-11.87,17a19,19,0,0,0,.29,3.34c-.71,2.82-2,5.76-4.31,5.76-1.72,0-2.33-1.82-2.33-3.36,0-5.37,1.79-11.43,2.75-14.67a17.15,17.15,0,0,0,.56-2.18,3.68,3.68,0,0,0-1.08-2.72c-.86-1-2.26-2.09-3.07-2.09H129a25.38,25.38,0,0,1-3.43-.24,5.2,5.2,0,0,0-5.11-3.95,4.11,4.11,0,0,0-4.29,4,5.78,5.78,0,0,0,3.17,5.05c-.05,2.5-.3,9.17-1.16,12.29,0,.12,0,.24-.07.34v.05c-.66,3.21-1.86,7.45-4.71,7.45-1.72,0-2.33-1.81-2.33-3.36,0-5.37,1.79-11.42,2.75-14.66a15.39,15.39,0,0,0,.56-2.18,3.72,3.72,0,0,0-1.08-2.73c-.86-1-2.25-2.08-3.06-2.08h-3.83A24.38,24.38,0,0,1,103,24.4a5.21,5.21,0,0,0-5.1-3.95,4.13,4.13,0,0,0-4.3,4,5.78,5.78,0,0,0,3.17,5.05c0,2.51-.3,9.18-1.16,12.29a2.53,2.53,0,0,1-.07.34v0c-1,5-2.48,7.46-4.34,7.46-1.08,0-1.3-1.5-1.3-2.77V28.18c0-2.23-1.94-3.85-4.59-3.85-1.44,0-2.52.81-2.52,1.86a3.57,3.57,0,0,0,.1.74,7.08,7.08,0,0,1,.19,1.62V41.2a3.78,3.78,0,0,0-.27,1c-1,5-2.47,7.46-4.34,7.46-1.08,0-1.3-1.5-1.3-2.77V28.18c0-2.23-1.94-3.85-4.58-3.85-1.11,0-3,.29-3,1.42a1.38,1.38,0,0,0,.27.79,3.27,3.27,0,0,1,.46,2V40.34c-1,5.52-3.18,9.37-5.42,9.37-2.4,0-2.77-3.43-2.77-5.49,0-6,.79-9.2,2.06-14.5l0-.22a6.25,6.25,0,0,1,.27-.68c.42-.93,1-2.23.37-3.19a2.63,2.63,0,0,0-2.4-.93c-3.39,0-4,1.13-4.3,2.47a2.25,2.25,0,0,1-.19.62l0,.05a70.43,70.43,0,0,0-2.67,16.31,29.44,29.44,0,0,1-5.54,9.29V34.7c0-2.23-1.94-3.85-4.59-3.85-1.45,0-2.53.81-2.53,1.87a3.38,3.38,0,0,0,.1.73,6.43,6.43,0,0,1,.2,1.62v8.32c-.54,3-2,6.27-4.32,6.27s-3.58-2-3.58-5.42c0-9.68,5.79-14.76,11.53-14.76.34,0,.71.05,1,.07s.71.08,1.08.08c1.57,0,1.57-1.55,1.57-2.31a3.66,3.66,0,0,0-4-3.7,17.41,17.41,0,0,0-12.55,5.47A21.12,21.12,0,0,0,28.18,44c0,7.12,3.68,11.73,9.37,11.73A8.33,8.33,0,0,0,43,53.81V73.67c0,6.65,2.82,10.33,8,10.33,4.44,0,7.9-4.56,7.9-10.4,0-5.35-2.75-9.59-6.9-14.22a32.42,32.42,0,0,0,5.62-6.6,7.37,7.37,0,0,0,6.18,3c2.75,0,5.15-1.47,7.14-4.39a6.45,6.45,0,0,0,6.25,4.32,8.91,8.91,0,0,0,6.94-3.34,6.45,6.45,0,0,0,5.79,3.34c5,0,8.73-3.88,10.92-11.21a2.38,2.38,0,0,0,.12-.35c1.42-4.53,1.76-11,1.84-13.09h4.93c-2.36,6.5-3.41,11.35-3.41,15.65,0,6.64,4.24,9,8.19,9,5,0,8.73-3.88,10.91-11.21a1.59,1.59,0,0,0,.13-.35c1.42-4.53,1.76-11,1.84-13.09h4.92c-2.35,6.5-3.4,11.35-3.4,15.65,0,6.64,4.24,9,8.19,9,3.33,0,6.1-1.74,8.24-5.08.29.37.59.71.91,1a13.08,13.08,0,0,0,9.46,4c5,0,8.41-1.87,10.62-4.25a8.57,8.57,0,0,0,7.85,4.25c7.68,0,11.28-9,12.21-11.82l0,0A3.57,3.57,0,0,0,183.2,40.54Zm35-22.37c-2.6,2.28-5.79,3.68-8.29,3.68a3.34,3.34,0,0,1-2-.46,1.43,1.43,0,0,0-.78-.27c-1.13,0-1.42,1.86-1.42,3,0,2.53,1.52,4.15,3.85,4.15,4.12,0,9.19-2.06,13.19-5.4,4.39-3.63,6.92-8.19,6.92-12.5,0-6.28-3.9-10.33-10-10.33-6.89,0-13.27,3.9-18,11a40.75,40.75,0,0,0-6.6,21.81c0,14.76,6.7,23.93,17.46,23.93a21.53,21.53,0,0,0,14.91-6.25l0,0a2.77,2.77,0,0,0,.39-3.06c-.44-1.25-1.54-2.67-2.92-2.8a2.21,2.21,0,0,0-2.13,1.2l-.1.1A14,14,0,0,1,213.08,50a9.06,9.06,0,0,1-8.37-5.17c-1.61-3-2.5-7.14-2.5-12,0-11.87,7.36-26.19,16.53-26.19,3.07,0,3.88,2.2,3.88,3.5C222.62,12.78,221,15.72,218.2,18.17ZM307,17.56c-.32-.17-.79-.22-1.4.32-4.2.17-8.81.27-13.76.29V5.91c0-2.23-1.94-3.85-4.59-3.85-1.1,0-3,.29-3,1.42a1.45,1.45,0,0,0,.27.79,3.17,3.17,0,0,1,.47,2V18.1c-3.58-.07-6-.2-6-.2h0a1.56,1.56,0,0,0-1.32.67,2.26,2.26,0,0,0-.37,1.34c0,1.7,1.25,4.12,3.21,4.15.22,0,1.79.12,4.49.15v17a3.78,3.78,0,0,0-.27,1c-1,5-2.48,7.46-4.32,7.46-1.49,0-1.88-1.74-1.88-2.77V34.78c0-2.23-1.94-3.85-4.59-3.85-1.45,0-2.53.81-2.53,1.86a3.57,3.57,0,0,0,.1.74,6.36,6.36,0,0,1,.2,1.62V46.33c-.62,1.54-1.74,3.33-3.51,3.33-2.23,0-3.58-2-3.58-5.42,0-9.68,5.79-14.76,11.53-14.76.34,0,.71.05,1,.07s.71.08,1.08.08c1.57,0,1.57-1.55,1.57-2.31a3.66,3.66,0,0,0-4-3.7,17.41,17.41,0,0,0-12.55,5.47A21.12,21.12,0,0,0,257.74,44c0,.57,0,1.08.07,1.62-.91,2.68-2.06,4-3.43,4-1.08,0-1.3-1.49-1.3-2.77V31.66c0-5.1-2.45-8-6.72-8-2.87,0-5.42,1.84-7.63,5.47V7.38c0-2.23-1.94-3.85-4.59-3.85-1.1,0-3,.3-3,1.42a1.38,1.38,0,0,0,.27.79,3.27,3.27,0,0,1,.46,2V51.9c0,2.45,1.52,3.85,4.15,3.85a2.56,2.56,0,0,0,1.91-.69,4,4,0,0,0,.76-3V41.25a18.43,18.43,0,0,1,2.89-7.94c1.53-2.38,3-3.61,3.71-3.61s.93,1.42.93,3.58V48.22c0,4.44,2.8,7.53,6.79,7.53a9,9,0,0,0,7-3.44,8.42,8.42,0,0,0,7,3.44,8.53,8.53,0,0,0,6.25-2.65,7.18,7.18,0,0,0,5.74,2.65,9.07,9.07,0,0,0,7.06-3.41,6.72,6.72,0,0,0,6.26,3.41c7,0,9.95-7.48,11.11-12a2.3,2.3,0,0,0,.1-.66c0-1.74-1.67-3.63-3.19-3.63-.44,0-1.89.2-2.36,2.7-1,4.95-2.47,7.45-4.34,7.45-.81,0-1.89-.29-1.89-2.77V24.18c3.73,0,7.95,0,13.54-.15,1,0,1.77-1.05,2.16-2.82C307.6,20.9,308.16,18.2,307,17.56ZM93.93,14.49a5,5,0,1,0-5-5A5,5,0,0,0,93.93,14.49Z"/>
  </symbol>
  <symbol xmlns="http://www.w3.org/2000/svg" viewBox="0 0 438.19 100" id="logo">
    <use x="0" y="0" width="97.46" height="100" href="#squirrel" />
    <use x="130.46" y="23" width="256.44" height="70" href="#wordmark"/>
  </symbol>
</svg>
