<svg xmlns="http://www.w3.org/2000/svg" viewBox="0 0 97.47 99.98">
  <clipPath id="clip-path">
    <path d="M97.1,60.71a27.1,27.1,0,0,0-2.5-7.33,34.05,34.05,0,0,0-3.68-5.82,22.84,22.84,0,0,0,1.76-6.49,20.15,20.15,0,0,0-.29-6.21A16.9,16.9,0,0,0,91,30.78a12.43,12.43,0,0,0-.91-1.61,2.22,2.22,0,0,0-1.68-.91,2.18,2.18,0,0,0-1.76.76,38.92,38.92,0,0,1-11.18,9.2c.48-.71.93-1.41,1.35-2.13a35.73,35.73,0,0,0,2-4c.54-1.26,1-2.57,1.47-4A39.71,39.71,0,0,0,82.06,18a43.72,43.72,0,0,0-.48-8.45,37.9,37.9,0,0,0-2.1-8A2.34,2.34,0,0,0,77.88.08,2.45,2.45,0,0,0,75.79.5C66.54,7.61,60.5,10,50.48,14,44.78,16.2,37.69,19,28.06,23.44a68.11,68.11,0,0,0-9.19,5.09,49.24,49.24,0,0,0-7.22,5.77,41.49,41.49,0,0,0-5.37,6.38,36.08,36.08,0,0,0-3.62,6.83,36.84,36.84,0,0,0-2,7.17A41,41,0,0,0,0,62a48.38,48.38,0,0,0,.6,7.38,59.57,59.57,0,0,0,1.61,7.34,24,24,0,0,0,3.46,7.45A20.06,20.06,0,0,0,10,88.69a16.63,16.63,0,0,0,5.17,2.72,22.3,22.3,0,0,0,2,2.5,18.37,18.37,0,0,0,7.42,5,19.08,19.08,0,0,0,4.86,1c.58,0,1.18.07,1.78.07A26,26,0,0,0,35,99.72a34.42,34.42,0,0,0,8.26-2.19,22.7,22.7,0,0,0,5.81-3.44,18.87,18.87,0,0,0,3.73-4.15,21.74,21.74,0,0,0,2.13-4.23,15.57,15.57,0,0,0,1-6.73c0-.15,0-.3,0-.45a53.29,53.29,0,0,0,9.21,3.91,40.55,40.55,0,0,0,10.77,1.89,33.8,33.8,0,0,0,4-.12,28.47,28.47,0,0,0,3-.45A16.62,16.62,0,0,0,85.66,83a2.46,2.46,0,0,0,.7-.47,4.43,4.43,0,0,0,1.31-3.29A10.28,10.28,0,0,0,86,74.31c-.44-.75-1-1.54-1.59-2.38l.34.09a20.93,20.93,0,0,0,4.73.57A14.8,14.8,0,0,0,91,72.51a8.84,8.84,0,0,0,5.28-2,2.19,2.19,0,0,0,.59-1A20.68,20.68,0,0,0,97.1,60.71ZM6.81,75.47C.72,53.78,8.55,37.77,30.07,27.85c9.51-4.38,16.54-7.16,22.18-9.38,5.2-2.06,9.29-3.69,13.4-5.76A76.54,76.54,0,0,0,76,6.38a36.51,36.51,0,0,1,.84,4.06,36.7,36.7,0,0,1-1.15,16.29,32.53,32.53,0,0,1-8.48,13.92,1.24,1.24,0,0,0-.18.21c-2.29-.11-4.54-.15-6.73-.15-2.7,0-5.29.07-7.78.24a91,91,0,0,0-12.34,1.57,63.66,63.66,0,0,0-9.77,2.77A43.39,43.39,0,0,0,22.93,49a30.5,30.5,0,0,0-9.24,8.68,25.92,25.92,0,0,0-2.32,4.26,24,24,0,0,0-1.23,3.67,23.86,23.86,0,0,0-.53,5.55,44.74,44.74,0,0,0,.66,7.41,40.78,40.78,0,0,0,1.26,5.19A18.06,18.06,0,0,1,6.81,75.47Zm85.94-7.8-.27.12a7.78,7.78,0,0,1-2.49.49c-2.23.11-6.18-.4-12.22-3.45a2.19,2.19,0,0,0-2.49,3.54,57.35,57.35,0,0,1,4.61,5,23.6,23.6,0,0,1,2.72,4,5.43,5.43,0,0,1,.62,1.8,24,24,0,0,1-7.3.78c-4.79-.15-12.41-1.58-21.64-7.38a10.72,10.72,0,0,0-2-2.84A12.37,12.37,0,0,0,49,67.4a15,15,0,0,0-8-1.53,13,13,0,0,0-7,2.68,11.09,11.09,0,0,0-2.65,3,12.45,12.45,0,0,0-1.56,4.08,2.19,2.19,0,1,0,4.3.85,7.75,7.75,0,0,1,7.35-6.27c3.49-.3,7.74,1.22,9.09,4.67v0a13.3,13.3,0,0,1,.29,9.28c-1.52,4-4.88,9.5-16.48,11.22-5.81.86-10.5-.63-13.95-4.41s-5.11-9.36-5.79-13.25a31.25,31.25,0,0,1-.19-11.16c.94-3.86,3.6-9.42,10.87-14,8.1-5.05,19.85-7.6,35-7.6,2.35,0,4.8.06,7.32.18h.21a13.68,13.68,0,0,0,2.11-.32A27,27,0,0,0,75,43.31a35.74,35.74,0,0,0,7-4,45.3,45.3,0,0,0,5.73-5A15.33,15.33,0,0,1,88.19,36a17,17,0,0,1-1.74,11,2.16,2.16,0,0,0,.35,2.44s.57.63,1.32,1.67a30.4,30.4,0,0,1,2.65,4.39C92.89,59.78,93.56,63.89,92.75,67.67Z"/>
  </clipPath>
  <g clip-path="url(#clip-path)">
    <rect fill="#f47c7c" width="97.47" height="33.33"/>
    <rect fill="#ffc268" y="16.66" width="97.47" height="33.33"/>
    <rect fill="#f7f48b" y="33.33" width="97.47" height="33.33"/>
    <rect fill="#a1de93" y="49.99" width="97.47" height="33.33"/>
    <rect fill="#70a1d7" y="66.65" width="97.47" height="33.33"/>
    <rect fill="#957dad" y="83.32" width="97.47" height="16.66"/>
  </g>
  <circle fill="#a1de93" cx="83.06" cy="55.58" r="3.4"/>
</svg>
